HIERARCHY
ROOT Hips
{
  OFFSET 0 89.5177 0.535
  CHANNELS 6 Xposition Yposition Zposition Zrotation Xrotation Yrotation
  JOINT Spine
  {
    OFFSET 12.0259 -0.162855 1.69034e-005
    CHANNELS 3 Zrotation Xrotation Yrotation
    JOINT Spine1
    {
      OFFSET 15.3169 -0.0121922 0
      CHANNELS 3 Zrotation Xrotation Yrotation
      JOINT Spine2
      {
        OFFSET 15.3176 -0.0121908 0
        CHANNELS 3 Zrotation Xrotation Yrotation
        JOINT Neck
        {
          OFFSET 19.9142 1.56338 0
          CHANNELS 3 Zrotation Xrotation Yrotation
          JOINT Head
          {
            OFFSET 6.92651 0 0
            CHANNELS 3 Zrotation Xrotation Yrotation
            End Site
            {
              OFFSET 20.7666 0 0
            }
          }
          JOINT LeftShoulder
          {
            OFFSET -6.20654 0.708824 7.28219
            CHANNELS 3 Zrotation Xrotation Yrotation
            JOINT LeftArm
            {
              OFFSET 14.108 0 -1.52588e-005
              CHANNELS 3 Zrotation Xrotation Yrotation
              JOINT LeftForeArm
              {
                OFFSET 28.5802 0 0
                CHANNELS 3 Zrotation Xrotation Yrotation
                JOINT LeftHand
                {
                  OFFSET 27.092 0 0
                  CHANNELS 3 Zrotation Xrotation Yrotation
                  End Site
                  {
                    OFFSET 9.55928 -0.186424 0.145352
                  }
                }
              }
            }
          }
          JOINT RightShoulder
          {
            OFFSET -6.20654 0.708866 -7.28218
            CHANNELS 3 Zrotation Xrotation Yrotation
            JOINT RightArm
            {
              OFFSET 14.108 0 1.52588e-005
              CHANNELS 3 Zrotation Xrotation Yrotation
              JOINT RightForeArm
              {
                OFFSET 28.5802 0 0
                CHANNELS 3 Zrotation Xrotation Yrotation
                JOINT RightHand
                {
                  OFFSET 27.092 0 0
                  CHANNELS 3 Zrotation Xrotation Yrotation
                  End Site
                  {
                    OFFSET 9.55929 -0.186417 -0.145354
                  }
                }
              }
            }
          }
        }
      }
    }
  }
  JOINT LeftUpLeg
  {
    OFFSET 0.005 -0.535 8.837
    CHANNELS 3 Zrotation Xrotation Yrotation
    JOINT LeftLeg
    {
      OFFSET 39.9035 0 0
      CHANNELS 3 Zrotation Xrotation Yrotation
      JOINT LeftFoot
      {
        OFFSET 39.6689 0 0
        CHANNELS 3 Zrotation Xrotation Yrotation
        JOINT LeftToe
        {
          OFFSET 10.1624 13.6296 0
          CHANNELS 3 Zrotation Xrotation Yrotation
          End Site
          {
            OFFSET 8.38147 0 0
          }
        }
      }
    }
  }
  JOINT RightUpLeg
  {
    OFFSET 0.005 -0.535 -8.837
    CHANNELS 3 Zrotation Xrotation Yrotation
    JOINT RightLeg
    {
      OFFSET 39.9035 0 0
      CHANNELS 3 Zrotation Xrotation Yrotation
      JOINT RightFoot
      {
        OFFSET 39.6689 0 0
        CHANNELS 3 Zrotation Xrotation Yrotation
        JOINT RightToe
        {
          OFFSET 10.1624 13.6296 0
          CHANNELS 3 Zrotation Xrotation Yrotation
          End Site
          {
            OFFSET 8.38147 0 0
          }
        }
      }
    }
  }
}
MOTION
Frames:	19
Frame Time:	0.0333333
441.48 80.2316 -196.114 124.917 65.3248 -33.0753 0.246253 0.555049 -0.632981 0.498658 1.10781 -1.26826 0.498658 1.10781 -1.26827 -8.3043e-012 -9.0191e-006 -5.27751e-005 -7.38798 6.19299 -4.485 -178.999 -4.12439 -76.349 -4.24848 20.0611 57.5297 -92.1561 1.59028e-015 -0 -42.5792 -43.5111 -29.7993 -177.232 7.80297 70.3964 1.12433 -10.475 -57.3783 -72.8815 1.59028e-015 7.95139e-015 -45.5041 52.4427 40.9038 -39.5161 0.84917 -157.965 -49.657 0 -0 19.8541 -3.86549 -0.652233 90 3.89494e-015 3.18055e-015 -30.4202 -8.08701 155.451 -34.5844 -6.36111e-015 -7.95139e-015 18.6022 -4.62523 21.9203 90 0 9.54166e-015 
444.53 79.1247 -195.256 127.23 65.8889 -36.7868 0.400982 0.286324 -0.389564 0.803917 0.57038 -0.780973 0.803917 0.57038 -0.780982 -8.30748e-012 -9.0191e-006 -5.27751e-005 -8.42217 6.03453 -3.92629 -179.099 -3.59717 -75.9227 -4.92037 18.0818 57.3756 -88.4139 -3.18055e-015 3.18055e-015 -43.9757 -41.9372 -30.6957 -177.159 7.844 70.0168 -0.502694 -8.39067 -56.0212 -67.4869 3.18055e-015 7.95139e-015 -43.2278 51.0944 37.3231 -38.5348 -3.95469 -157.243 -48.6625 1.59028e-015 3.18055e-015 21.8427 -1.80228 -10.4451 90 1.14301e-015 -4.77083e-015 -29.0647 -8.34286 154.318 -31.5561 0 1.59028e-015 17.1668 -4.383 24.6831 90 -6.06643e-021 3.18055e-015 
447.991 78.2417 -194.216 126.945 65.2003 -36.1243 0.522974 0.34498 -0.472084 1.0488 0.686097 -0.94716 1.0488 0.686097 -0.947169 -8.30748e-012 -9.0191e-006 -5.27751e-005 -9.03313 5.49902 -3.44558 -179.347 -2.53651 -75.5631 -5.56129 15.6263 58.2686 -83.7641 6.36111e-015 -6.36111e-015 -42.1909 -41.0243 -29.0666 -177.333 7.38057 70.0688 -1.73682 -5.73185 -55.1669 -59.7793 4.77083e-015 -7.95139e-016 -43.7827 47.154 35.9941 -39.0415 -3.78147 -158.362 -50.3559 1.59028e-015 7.95139e-016 24.1766 -0.203188 -17.2064 90 8.19987e-016 -1.59028e-015 -27.1374 -4.8137 152.397 -28.5769 -6.36111e-015 1.59028e-015 15.9092 -3.16043 24.6144 90 -5.96354e-016 -3.18055e-015 
451.479 77.695 -193.255 124.481 63.7034 -32.3291 0.740678 0.699975 -0.757863 1.49072 1.3905 -1.52472 1.49072 1.3905 -1.52473 -8.31066e-012 -9.0191e-006 -5.27751e-005 -9.208 4.58323 -3.59738 -179.634 -1.32361 -74.5262 -6.711 13.1801 58.0229 -79.5455 0 3.18055e-015 -41.0689 -42.5328 -29.5813 -177.635 6.34936 69.523 -1.55746 -3.85158 -53.886 -54.8467 0 -3.18055e-015 -46.6712 44.5212 37.9631 -42.6353 0.627976 -160.445 -55.8589 -1.59028e-015 4.77083e-015 26.518 0.148648 -13.6502 90 8.69683e-017 -1.59028e-015 -26.5128 -0.861152 150.123 -27.2097 -3.18056e-015 -1.59028e-015 14.2044 -1.75456 22.6682 90 -1.59028e-015 6.36111e-015 
454.795 77.5624 -192.555 123.901 62.3246 -30.5129 0.884696 1.06268 -1.01425 1.78853 2.10988 -2.04516 1.78853 2.10988 -2.04517 -8.31066e-012 -9.0191e-006 -5.27751e-005 -9.64911 3.36292 -4.12216 179.851 0.510823 -73.7838 -8.45877 11.2018 56.832 -76.2944 3.18055e-015 9.54166e-015 -40.5175 -43.7383 -30.0571 -177.805 5.91141 69.5893 -0.614855 -1.77209 -54.5056 -52.3912 -4.77083e-015 -3.18055e-015 -49.5564 44.2848 41.4132 -44.7614 4.90797 -161.809 -57.4558 3.18055e-015 -1.59028e-015 27.2052 1.41073 -13.5728 90 -1.66827e-020 -1.59028e-015 -29.1514 -0.409132 148.148 -27.633 -3.18056e-015 4.77083e-015 11.1886 -0.664373 19.6718 90 1.98785e-015 -0 
457.812 77.5575 -192.105 124.19 61.0384 -30.7867 0.901079 1.06978 -1.06792 1.82242 2.12292 -2.15293 1.82242 2.12292 -2.15294 -8.30112e-012 -9.0191e-006 -5.27751e-005 -10.1786 3.78659 -4.32926 179.711 0.991999 -73.7458 -9.61213 9.91259 55.6271 -75.6499 0 -9.54166e-015 -40.7164 -41.8329 -29.3869 -177.879 5.75336 69.7256 -1.69136 -0.0666507 -55.7139 -51.7052 3.18055e-015 -3.18055e-015 -50.8865 45.1837 43.7527 -47.0725 6.72538 -162.917 -59.5289 3.18055e-015 3.18055e-015 28.1667 1.68286 -11.0722 90 -6.82473e-021 -0 -34.4745 -3.26638 147.684 -30.8283 -6.36111e-015 -7.95139e-015 8.73922 0.0779842 16.733 90 -3.97569e-015 3.18055e-015 
460.355 77.976 -191.641 124.235 60.9149 -30.1127 1.03078 0.731808 -1.18642 2.07675 1.44247 -2.38595 2.07675 1.44247 -2.38596 -8.30112e-012 -9.0191e-006 -5.27751e-005 -10.7752 4.84008 -4.15258 179.731 0.93921 -74.0464 -9.1121 8.75066 55.3691 -77.1068 -6.36111e-015 -3.18055e-015 -40.4142 -40.6301 -28.0498 -178.135 5.14978 70.0572 -3.34163 0.0623529 -56.3982 -54.0016 -3.18055e-015 -4.77083e-015 -50.3983 44.8182 42.7854 -46.9879 7.56542 -165.66 -59.3088 1.59028e-015 4.77083e-015 28.1268 0.954555 -8.98833 90 -2.27491e-021 -0 -36.3053 -2.88793 148.376 -35.9264 3.18056e-015 9.54167e-015 11.4288 1.4504 14.2208 90 -7.95139e-016 -6.36111e-015 
462.326 79.0892 -191.434 124.428 60.3044 -30.0147 1.07686 0.622755 -1.1822 2.16653 1.22352 -2.37594 2.16653 1.22352 -2.37595 -8.30748e-012 -9.0191e-006 -5.27751e-005 -11.2273 5.18227 -3.98755 179.692 1.11905 -74.6162 -8.5247 7.74801 55.6353 -79.0686 3.18055e-015 -0 -40.9911 -40.6376 -28.6238 -178.276 4.86412 70.454 -5.36436 -1.18486 -56.7833 -58.1917 -1.59028e-015 -0 -49.2916 43.3789 40.0464 -46.2608 8.68629 -167.438 -56.7836 1.59028e-015 7.95139e-016 26.8519 0.583239 -7.29013 90 -4.54982e-021 -0 -37.7703 -2.95322 151.477 -40.249 -3.18056e-015 3.18056e-015 15.1928 2.02559 11.3549 90 2.38542e-015 3.18055e-015 
463.934 80.5467 -191.277 124.555 59.7477 -30.491 1.07604 0.661415 -1.064 2.1644 1.30309 -2.14028 2.1644 1.30309 -2.14029 -8.30112e-012 -9.0191e-006 -5.27751e-005 -11.0765 4.93484 -3.90154 179.666 1.24625 -75.0143 -7.94466 6.92851 55.8924 -81.2271 1.59028e-015 -9.54166e-015 -41.7802 -40.3961 -29.6229 -178.304 4.83203 70.6359 -7.16352 -3.01292 -57.0998 -62.7207 1.59028e-015 -1.59028e-015 -49.1231 41.5059 38.2009 -45.1016 9.94002 -168.359 -53.0763 -1.59028e-015 -3.18055e-015 24.9086 0.674218 -5.78726 90 -1.06162e-020 -0 -38.3009 -3.72743 156.344 -43.4126 -6.36111e-015 3.18056e-015 18.8471 3.00991 6.48766 90 1.59028e-015 -0 
465.343 82.099 -191.184 125.889 59.5891 -32.0978 0.942677 0.635174 -0.929877 1.89571 1.25535 -1.87009 1.89571 1.25535 -1.8701 -8.30748e-012 -9.0191e-006 -5.27751e-005 -10.4516 4.13857 -3.73528 179.708 1.11443 -75.3253 -7.01311 6.61538 56.5135 -83.8611 0 -0 -42.8218 -39.7037 -30.5491 -178.356 4.79125 71.0386 -8.7745 -5.28426 -57.6692 -66.7811 -1.59028e-015 -0 -48.9014 40.8254 37.2766 -44.168 11.8862 -169.108 -48.5162 0 -0 22.3204 1.84949 -4.29526 90 -7.58303e-021 1.59028e-015 -38.5411 -7.10331 161.129 -44.2013 0 -3.18056e-015 21.6647 2.03551 3.42921 90 -1.59028e-015 -6.36111e-015 
466.654 83.5183 -191.19 127.926 59.525 -33.5882 0.729977 0.602883 -0.965393 1.47013 1.1938 -1.93839 1.47013 1.1938 -1.9384 -8.31066e-012 -9.0191e-006 -5.27751e-005 -9.69958 2.74105 -3.64 179.795 0.793164 -75.5282 -5.75181 6.98952 57.0972 -87.3221 1.59028e-015 3.18055e-015 -43.7049 -39.1895 -31.195 -178.407 4.78202 71.5503 -10.2121 -7.7142 -58.5077 -70.4748 1.59028e-015 3.97569e-015 -49.4481 41.3571 38.1495 -42.8493 13.9067 -170.549 -43.292 0 3.97569e-016 19.4654 3.66597 -3.15254 90 1.51661e-021 4.77083e-015 -39.1007 -10.2197 164.402 -44.374 -6.36111e-015 3.18056e-015 21.1758 -0.899127 6.24021 90 7.95139e-016 -6.36111e-015 
467.85 84.6339 -191.342 129.526 59.2469 -34.1799 0.564021 0.671995 -1.15194 1.14156 1.33295 -2.31051 1.14156 1.33295 -2.31052 -8.30748e-012 -9.0191e-006 -5.27751e-005 -9.43245 0.929078 -3.64082 179.898 0.398254 -75.5899 -4.46147 7.58441 57.2619 -91.3114 0 6.36111e-015 -45.1282 -39.8314 -32.7001 -178.366 4.9643 71.7532 -11.0109 -9.39967 -59.2872 -73.8857 0 3.18055e-015 -49.3125 42.0781 38.2023 -40.9642 13.9275 -172.628 -38.2173 1.59028e-015 -7.95139e-016 16.8582 5.16247 -2.76789 90 3.88251e-019 -0 -39.5553 -11.0568 167.24 -44.5169 0 -3.18056e-015 19.7806 -2.20986 6.89391 90 -7.95139e-016 9.54166e-015 
469.1 85.1407 -191.474 130.659 58.7985 -33.5481 0.440738 0.767686 -1.55809 0.902313 1.52355 -3.12229 0.902313 1.52355 -3.12229 -8.30748e-012 -9.0191e-006 -5.27751e-005 -9.40112 -0.884514 -3.33401 179.957 0.165703 -75.4167 -2.8894 8.67686 56.7284 -96.3564 -1.59028e-015 -3.18055e-015 -46.7807 -40.0289 -34.0163 -178.317 5.04228 71.5161 -10.9658 -10.7742 -59.8098 -77.5407 7.95139e-016 -3.97569e-016 -50.9188 42.3213 39.7357 -39.1238 10.483 -175.291 -34.9399 0 7.95139e-016 15.6159 7.02637 -3.53582 90 -1.2424e-017 -0 -41.9144 -13.4828 167.327 -46.3745 -9.54167e-015 -9.54167e-015 20.5657 1.29108 0.141173 90 2.38542e-015 -9.54166e-015 
470.297 84.9847 -191.847 130.347 57.1797 -32.5951 0.344435 1.06083 -1.7469 0.721247 2.11111 -3.50086 0.721247 2.11111 -3.50087 -8.30748e-012 -9.0191e-006 -5.27751e-005 -9.52335 -2.38103 -2.84804 179.983 0.0655743 -75.2829 -1.97873 9.94449 56.1328 -101.573 -1.59028e-015 6.36111e-015 -50.1696 -39.9925 -37.5872 -178.243 5.13428 71.0786 -10.1531 -11.4355 -59.3952 -81.5435 -2.38542e-015 -7.95139e-016 -52.5196 42.2217 41.197 -39.3014 6.33344 -175.288 -35.2324 -6.36111e-015 -0 16.5276 7.595 -5.14911 90 -7.45443e-017 -3.18055e-015 -44.2674 -16.6738 167.163 -45.7886 -3.18056e-015 -0 21.5825 3.32166 -5.10739 90 0 3.18055e-015 
471.454 84.0279 -192.103 127.552 55.222 -30.1506 0.56603 1.41336 -1.72103 1.17481 2.80948 -3.45735 1.17481 2.80948 -3.45736 -8.30112e-012 -9.0191e-006 -5.27751e-005 -10.5318 -3.38117 -2.53452 -179.956 -0.167274 -75.1514 -2.19308 10.2412 55.873 -105.707 -7.95139e-016 -9.54166e-015 -54.3375 -39.6357 -42.1076 -178.311 4.94988 71.1341 -8.97568 -10.6112 -58.6208 -85.0906 1.59028e-015 -1.59028e-015 -54.155 42.365 43.098 -39.7029 1.75535 -173.105 -38.628 3.18055e-015 -0 19.1858 5.10375 -7.88857 90 -9.93923e-017 1.27222e-014 -45.2321 -14.1737 168.105 -47.5492 6.36111e-015 1.59028e-015 22.6161 3.22081 -4.92474 90 -7.95139e-016 3.18055e-015 
472.762 82.3014 -192.783 124.579 51.1494 -27.5651 0.629162 1.87345 -1.67205 1.31383 3.72807 -3.36711 1.31383 3.72807 -3.36712 -8.30748e-012 -9.0191e-006 -5.27751e-005 -11.4711 -2.57131 -2.50675 -179.936 -0.2365 -74.876 -2.04382 10.0011 55.8911 -108.703 3.97569e-016 -6.36111e-015 -58.0869 -38.6657 -46.1157 -178.648 4.01464 71.3731 -7.66282 -8.74574 -57.6432 -87.1647 7.95139e-016 -0 -55.7087 41.2833 43.9094 -41.4233 -2.84486 -170.754 -43.7835 -6.36111e-015 -1.59028e-015 24.0291 6.05209 -10.3287 90 2.42657e-020 -3.18055e-015 -48.8115 -12.6811 168.017 -50.1482 9.54167e-015 -1.59028e-015 21.3547 -1.89321 4.0977 90 -9.93923e-017 -0 
474.159 80.2348 -193.836 122.178 46.9893 -25.642 0.740337 2.15923 -1.61578 1.54298 4.29699 -3.26265 1.54298 4.29699 -3.26266 -8.3043e-012 -9.0191e-006 -5.27751e-005 -13.0244 0.128532 -3.08627 179.949 0.179279 -74.1466 -0.79205 8.32099 54.8364 -110.628 -7.55382e-015 -3.18055e-015 -60.7549 -38.9359 -49.7185 -179.137 2.6482 71.9476 -7.35778 -6.06099 -57.7841 -88.1075 -7.95139e-016 -0 -59.7593 38.0572 46.9078 -45.9744 -2.28627 -168.345 -51.772 -3.18055e-015 1.59028e-015 27.9575 7.04802 -10.7427 90 -1.21329e-020 9.54166e-015 -53.1215 -10.6085 168.559 -54.1645 -3.18056e-015 -0 23.3815 -8.4114 7.47718 90 -1.98785e-016 -0 
475.506 78.5747 -195.372 123.534 45.7793 -25.7615 0.875065 1.98149 -1.85482 1.81549 3.93383 -3.74287 1.81549 3.93383 -3.74288 -8.3043e-012 -9.0191e-006 -5.27751e-005 -14.9967 3.01584 -3.77741 179.478 1.72621 -73.1866 0.276622 3.86558 51.4506 -110.36 -3.2551e-015 -3.18055e-015 -63.8514 -38.0445 -53.9551 -179.554 1.33116 71.4713 -4.65988 -2.10779 -59.1317 -89.1393 -1.59028e-015 -1.59028e-015 -59.6826 36.9852 45.9936 -51.9345 -0.704027 -168.102 -56.941 6.36111e-015 1.59028e-015 28.5142 7.50979 -10.4673 90 0 -0 -57.1884 -4.83498 167.495 -57.5769 0 -6.36111e-015 25.3163 -9.94105 8.83917 90 0 6.36111e-015 
476.972 76.7846 -196.697 128.145 47.2096 -29.4388 0.870579 1.53752 -1.92618 1.79334 3.04519 -3.87741 1.79334 3.04519 -3.87742 -8.30748e-012 -9.0191e-006 -5.27751e-005 -17.619 4.38946 -3.8844 178.81 3.99079 -73.3855 0.311889 -2.78903 48.5563 -107.377 -1.59028e-015 -9.54166e-015 -65.861 -37.651 -57.2224 -179.846 0.44787 71.0829 1.21007 1.56347 -61.1115 -90.9448 1.59028e-015 9.54166e-015 -56.0052 37.4198 42.6186 -60.0992 -2.17989 -168.926 -60.6815 9.54166e-015 -1.59028e-015 26.6614 10.1314 -10.9172 90 1.35888e-018 -0 -61.1421 -1.87992 163.917 -60.1491 -3.18056e-015 -0 24.6504 -8.0896 11.4544 90 -6.06643e-021 -3.18055e-015 
